# xmcd
#
# Track frame offsets: 
#        150
#        10615
#        21615
#        40919
#        59318
#        67470
#        84260
#        98174
#        121924
#        137037
#        149052
#        166668
#        189302
#        217217
#
# Disc length: 3096 seconds
#
# Revision: 0
# Processed by: cddbd v1.5.2PL0 Copyright (c) Steve Scherf et al.
# Submitted via: ExactAudioCopyFreeDBPlugin 1.0
#
DISCID=cc0c160e
DTITLE=The Dead South - Good Company
DYEAR=1900
DGENRE=
TTITLE0=Long Gone
TTITLE1=Achilles
TTITLE2=The Recap
TTITLE3=In Hell I'll be in Good Company
TTITLE4=Manly Way
TTITLE5=Travellin' Man
TTITLE6=Honey You
TTITLE7=Ballad for Janoski
TTITLE8=Down That Road
TTITLE9=The Dead South
TTITLE10=That Bastard Son
TTITLE11=Deep When the River's High
TTITLE12=Into the Valley
TTITLE13=Banjo Odyssey
EXTD=
EXTT0=
EXTT1=
EXTT2=
EXTT3=
EXTT4=
EXTT5=
EXTT6=
EXTT7=
EXTT8=
EXTT9=
EXTT10=
EXTT11=
EXTT12=
EXTT13=
PLAYORDER=
